<svg width="16" height="13" viewBox="0 0 16 13" fill="none" xmlns="http://www.w3.org/2000/svg">
<path fill-rule="evenodd" clip-rule="evenodd" d="M7.69523 0.209883C7.78589 0.249924 7.86296 0.315449 7.91707 0.398488C7.97118 0.481526 7.99999 0.578499 8 0.67761V11.9276C8.00007 12.0267 7.97131 12.1238 7.91725 12.2069C7.86318 12.2899 7.78612 12.3555 7.69546 12.3956C7.60479 12.4357 7.50443 12.4486 7.40658 12.4327C7.30873 12.4168 7.21761 12.3728 7.14432 12.306L3.54091 9.02988H1.69318C1.37673 9.02988 1.07324 8.90417 0.849475 8.68041C0.62571 8.45664 0.5 8.15315 0.5 7.8367V4.76852C0.5 4.10988 1.03455 3.57534 1.69318 3.57534H3.54091L7.14432 0.299201C7.21769 0.232656 7.30882 0.188854 7.40662 0.173119C7.50442 0.157384 7.60468 0.169711 7.69523 0.209883ZM6.97727 1.83329L4.08295 4.46511C3.98874 4.55075 3.86596 4.59816 3.73864 4.59806H1.69318C1.64797 4.59806 1.60462 4.61602 1.57265 4.64799C1.54069 4.67996 1.52273 4.72331 1.52273 4.76852V7.8367C1.52273 7.93079 1.59909 8.00716 1.69318 8.00716H3.73864C3.86596 8.00706 3.98874 8.05447 4.08295 8.14011L6.97727 10.7719V1.83329Z" fill="#9191A8"/>
<path d="M12.5805 0.999451C12.6763 0.903689 12.8063 0.849901 12.9418 0.849901C13.0773 0.849901 13.2073 0.903689 13.3032 0.999451C16.2323 3.92854 16.2323 8.67672 13.3032 11.6058C13.2062 11.6961 13.078 11.7453 12.9456 11.743C12.8131 11.7406 12.6867 11.687 12.593 11.5933C12.4993 11.4996 12.4456 11.3732 12.4433 11.2407C12.441 11.1082 12.4901 10.98 12.5805 10.8831C13.182 10.2816 13.6592 9.56751 13.9848 8.78159C14.3104 7.99567 14.4779 7.15332 14.4779 6.30263C14.4779 5.45195 14.3104 4.60959 13.9848 3.82367C13.6592 3.03775 13.182 2.32366 12.5805 1.72218C12.4847 1.6263 12.4309 1.49633 12.4309 1.36081C12.4309 1.2253 12.4847 1.09533 12.5805 0.999451Z" fill="#9191A8"/>
<path d="M10.893 3.40964C10.8455 3.36214 10.7891 3.32446 10.727 3.29876C10.665 3.27305 10.5984 3.25982 10.5313 3.25982C10.4641 3.25982 10.3976 3.27305 10.3355 3.29876C10.2734 3.32446 10.2171 3.36214 10.1696 3.40964C10.1221 3.45714 10.0844 3.51353 10.0587 3.57559C10.033 3.63765 10.0197 3.70417 10.0197 3.77135C10.0197 3.83852 10.033 3.90504 10.0587 3.9671C10.0844 4.02916 10.1221 4.08555 10.1696 4.13305C10.4545 4.41796 10.6805 4.75619 10.8347 5.12845C10.9889 5.5007 11.0682 5.89967 11.0682 6.3026C11.0682 6.70552 10.9889 7.1045 10.8347 7.47675C10.6805 7.849 10.4545 8.18723 10.1696 8.47214C10.0792 8.56908 10.0301 8.69729 10.0324 8.82977C10.0347 8.96225 10.0884 9.08865 10.1821 9.18234C10.2758 9.27603 10.4022 9.32969 10.5347 9.33203C10.6671 9.33437 10.7954 9.2852 10.8923 9.19487C11.6594 8.42768 12.0904 7.38719 12.0904 6.30226C12.0904 5.21733 11.6601 4.17683 10.893 3.40964Z" fill="#9191A8"/>
<path d="M6.97727 1.83329L4.08295 4.46511C3.98874 4.55075 3.86596 4.59816 3.73864 4.59806H1.69318C1.64797 4.59806 1.60462 4.61602 1.57265 4.64799C1.54069 4.67996 1.52273 4.72331 1.52273 4.76852V7.8367C1.52273 7.93079 1.59909 8.00716 1.69318 8.00716H3.73864C3.86596 8.00706 3.98874 8.05447 4.08295 8.14011L6.97727 10.7719V1.83329Z" fill="#9191A8"/>
</svg>
