<svg width="24" height="24" viewBox="0 0 24 24" fill="none" xmlns="http://www.w3.org/2000/svg">
<path fill-rule="evenodd" clip-rule="evenodd" d="M5.69949 4.78916C5.91767 3.74678 6.83678 3.00012 7.90175 3.00012H17.1429C17.4291 3.00012 17.7007 3.12737 17.8839 3.3474C18.0671 3.56744 18.1431 3.8575 18.0911 4.13908L15.8412 16.3533C15.7456 16.8722 15.2512 17.217 14.7326 17.1294C14.6802 17.1382 14.6263 17.1428 14.5713 17.1428H5.89282C5.36027 17.1428 4.92855 17.5745 4.92855 18.1071C4.92855 18.6396 5.36027 19.0713 5.89282 19.0713H15.3363C16.1079 19.0713 16.7706 18.523 16.915 17.7649L19.0882 6.35538C19.188 5.83223 19.6927 5.48892 20.2159 5.58857C20.739 5.68822 21.0824 6.19309 20.9828 6.71624L18.8095 18.1258C18.4919 19.7934 17.0339 20.9999 15.3363 20.9999H5.89282C4.29516 20.9999 3 19.7048 3 18.1071C3 18.0384 3.00239 17.9704 3.0071 17.9029C2.99457 17.8007 2.99836 17.6946 3.02065 17.5882L5.69949 4.78916ZM8.60505 5.57152C8.32836 5.57152 8.0827 5.74858 7.99519 6.01109L7.78091 6.65393C7.64215 7.07019 7.95198 7.50006 8.39076 7.50006H13.464C13.7407 7.50006 13.9864 7.323 14.0739 7.0605L14.2882 6.41765C14.4269 6.00139 14.1171 5.57152 13.6783 5.57152H8.60505Z" fill="#292936"/>
</svg>
