<svg width="16" height="19" viewBox="0 0 16 19" fill="none" xmlns="http://www.w3.org/2000/svg">
<path d="M3.35988 18.2969H12.6403C13.5104 18.2969 14.1683 18.074 14.614 17.6283C15.0598 17.1879 15.2827 16.538 15.2827 15.6787V7.75167C15.2827 6.89236 15.0598 6.24252 14.614 5.80213C14.1683 5.35636 13.5104 5.13348 12.6403 5.13348H10.4491V6.7205H12.5356C12.9062 6.7205 13.1908 6.81986 13.3895 7.01857C13.5936 7.21192 13.6957 7.50462 13.6957 7.89667V15.5418C13.6957 15.9338 13.5936 16.2265 13.3895 16.4199C13.1908 16.6186 12.9062 16.7179 12.5356 16.7179H3.45655C3.08061 16.7179 2.79328 16.6186 2.59457 16.4199C2.40122 16.2265 2.30455 15.9338 2.30455 15.5418V7.89667C2.30455 7.50462 2.40122 7.21192 2.59457 7.01857C2.79328 6.81986 3.08061 6.7205 3.45655 6.7205H5.55916V5.13348H3.35988C2.48984 5.13348 1.83194 5.35636 1.38617 5.80213C0.940411 6.24252 0.717529 6.89236 0.717529 7.75167V15.6787C0.717529 16.5434 0.940411 17.1959 1.38617 17.6363C1.83194 18.0767 2.48984 18.2969 3.35988 18.2969ZM8.00011 13.0767C8.09678 13.0767 8.19077 13.0605 8.28207 13.0283C8.37337 12.9907 8.46736 12.9236 8.56403 12.8269L11.2708 10.2168C11.4105 10.0772 11.4803 9.91872 11.4803 9.74149C11.4803 9.55351 11.4131 9.40045 11.2789 9.2823C11.15 9.16414 10.9942 9.10507 10.8116 9.10507C10.6129 9.10507 10.4464 9.17757 10.3122 9.32258L9.18434 10.5229L8.66875 11.111L8.74931 9.91066V1.5647C8.74931 1.36598 8.67413 1.19412 8.52375 1.04911C8.37874 0.904108 8.20419 0.831604 8.00011 0.831604C7.79603 0.831604 7.6188 0.904108 7.46842 1.04911C7.32341 1.19412 7.25091 1.36598 7.25091 1.5647V9.91066L7.33147 11.111L6.80783 10.5229L5.68 9.32258C5.5511 9.17757 5.38461 9.10507 5.18053 9.10507C4.99255 9.10507 4.83412 9.16414 4.70523 9.2823C4.5817 9.40045 4.51994 9.55351 4.51994 9.74149C4.51994 9.91872 4.58707 10.0772 4.72134 10.2168L7.42814 12.8269C7.53018 12.9236 7.62685 12.9907 7.71815 13.0283C7.80945 13.0605 7.90344 13.0767 8.00011 13.0767Z" fill="#9191A8"/>
</svg>
