<svg width="356" height="463" viewBox="0 0 356 463" fill="none" xmlns="http://www.w3.org/2000/svg">
<path d="M89 176.5H70C41.2812 176.5 18 199.781 18 228.5V393C18 421.719 41.2812 445 70 445H286C314.719 445 338 421.719 338 393V228.5C338 199.781 314.719 176.5 286 176.5H273.5M89 176.5V69.5C89 40.7812 112.281 17.5 141 17.5H221.5C250.219 17.5 273.5 40.7812 273.5 69.5V176.5M89 176.5H273.5" stroke="black" stroke-width="35"/>
<circle cx="179.5" cy="306.5" r="28.5" fill="black"/>
<line x1="179.5" y1="376" x2="179.5" y2="295" stroke="black" stroke-width="33"/>
</svg>
